<svg width="15" height="12" xmlns="http://www.w3.org/2000/svg" xmlns:xlink="http://www.w3.org/1999/xlink">
  <path d="M14.308207 1.656511L13.029705.28279C12.8544.094287 12.641196 0 12.390586 0c-.250841 0-.464045.094287-.63935.28279L5.584145 6.919199 2.820258 3.939347c-.175502-.188573-.388575-.282754-.639185-.282754-.250774 0-.463847.094181-.63935.282754L.263221 5.313104C.087718 5.501642 0 5.730655 0 6.000071c0 .269204.087718.498428.263221.686931l3.403072 3.656452 1.278601 1.373721c.175404.188644.388543.282825.639251.282825.25061 0 .463749-.094428.639251-.282825l1.278568-1.373721 6.806243-7.313116c.175338-.188573.263221-.417551.263221-.686967.000132-.269274-.087883-.498287-.263221-.68686z" fill="#36B37E" fill-rule="nonzero"/>
</svg>
