<svg width="15" height="14" xmlns="http://www.w3.org/2000/svg" xmlns:xlink="http://www.w3.org/1999/xlink">
  <g stroke="#b5b5c0" stroke-width="2" fill="none" fill-rule="evenodd" stroke-linecap="round" stroke-linejoin="round">
    <path d="M10.721278 10.24c-.93240548.71072849-2.06775956 1.1044708-3.24 1.1236364-3.81818182 0-6-4.3636364-6-4.3636364.6784854-1.26442054 1.61952843-2.36912323 2.76-3.24m2.09454545-.99272727A4.9745447 4.9745447 0 0 1 7.481278 2.63636364c3.81818182 0 6 4.36363636 6 4.36363636a10.0909144 10.0909144 0 0 1-1.1781818 1.74m-3.66545456-.58363636c-.40793582.43778875-1.022303.61799821-1.6020849.46993209-.57978189-.14806613-1.03250834-.60079258-1.18057447-1.18057447-.14806612-.5797819.03214334-1.19414908.46993209-1.6020849M1.481278 1l12 12"/>
  </g>
</svg>
